<?xml version="1.0" encoding="UTF-8" standalone="no"?>
<svg
   svg:contrastcolor="FFFFFF"
   svg:template="Contrast"
   svg:presentation="2.5"
   svg:layouttype="undefined"
   svg:specialfontid="undefined"
   svg:id1="153"
   svg:id2="638"
   svg:companyname="Kraal"
   svg:companytagline="Trade with trust"
   version="1.1"
   viewBox="0 35 380 110"
   id="svg344"
   width="380"
   height="110"
   xml:space="preserve"
   xmlns="http://www.w3.org/2000/svg"
   xmlns:svg="http://www.w3.org/2000/svg"><defs
     id="defs348" /><g
     fill="#171c8f"
     fill-rule="none"
     stroke="none"
     stroke-width="1"
     stroke-linecap="butt"
     stroke-linejoin="miter"
     stroke-miterlimit="10"
     stroke-dasharray="none"
     stroke-dashoffset="0"
     font-family="none"
     font-weight="none"
     font-size="none"
     text-anchor="none"
     style="mix-blend-mode:normal"
     id="g314"
     transform="translate(29.319372,-42.408377)"><g
       data-paper-data="{&quot;isGlobalGroup&quot;:true,&quot;bounds&quot;:{&quot;x&quot;:141.4276780619609,&quot;y&quot;:114.99999999999999,&quot;width&quot;:267.14464387607813,&quot;height&quot;:240}}"
       id="g312"><g
         id="g481"
         transform="translate(-39.267016,-203.66492)"><g
           data-paper-data="{&quot;isSecondaryText&quot;:true}"
           fill-rule="nonzero"
           id="g294"
           transform="matrix(1.1790155,0,0,1.3123336,-110.65518,-83.129747)"
           style="fill:#ffffff"><path
             d="m 141.42768,340.5587 h 6.68462 v 14.10497 h 2.08106 V 340.5587 h 6.68462 v -0.67267 h -15.4503 z"
             data-paper-data="{&quot;glyphName&quot;:&quot;T&quot;,&quot;glyphIndex&quot;:0,&quot;firstGlyphOfWord&quot;:true,&quot;word&quot;:1}"
             id="path266"
             style="fill:#ffffff" /><path
             d="m 168.32031,344.15326 c -0.29429,-0.042 -0.56756,-0.0631 -0.84083,-0.0631 -1.93392,0 -3.11108,0.96696 -3.72068,2.14412 l -0.021,-0.92492 -0.58858,-1.13512 -1.45044,0.021 v 10.48939 h 2.06004 v -7.79872 c 0.5045,-1.009 1.99698,-1.45044 3.11108,-1.45044 0.48348,0 0.9039,0.0841 1.13512,0.23123 0.1051,-0.52552 0.23123,-1.009 0.31531,-1.5135 z"
             data-paper-data="{&quot;glyphName&quot;:&quot;r&quot;,&quot;glyphIndex&quot;:1,&quot;word&quot;:1}"
             id="path268"
             style="fill:#ffffff" /><path
             d="m 180.35123,353.50752 c -0.77777,0.77777 -1.74473,0.94594 -2.81679,0.94594 -2.77475,-0.1051 -3.25823,-4.72968 -0.29429,-5.57052 1.40839,-0.3994 2.39637,-0.63062 3.11108,-1.1141 z m -5.9489,-6.87381 c 0.58858,-0.94594 1.74473,-1.89187 3.44741,-1.89187 1.57656,0 2.35433,0.86185 2.48046,2.43841 -0.52552,0.81981 -2.71169,0.81981 -4.51948,1.24023 -3.42639,0.77777 -3.44741,5.61256 0.021,6.39033 0.6096,0.12612 1.15614,0.18919 1.66064,0.18919 1.45044,0 2.48046,-0.48348 3.00598,-0.88287 l 0.31531,0.54654 h 1.59758 v -6.34829 c 0,-3.027 -1.34533,-4.1411 -4.20416,-4.1411 -1.91289,0 -3.27925,0.69369 -4.28825,2.16514 z"
             data-paper-data="{&quot;glyphName&quot;:&quot;a&quot;,&quot;glyphIndex&quot;:2,&quot;word&quot;:1}"
             id="path270"
             style="fill:#ffffff" /><path
             d="m 189.03983,349.68173 c 0.021,3.59456 2.75373,5.29725 5.36031,5.29725 1.30329,0 2.56454,-0.42042 3.42639,-1.26125 l 0.3994,0.94594 h 1.59758 v -14.77763 h -2.10208 v 5.12908 c -0.75675,-0.63062 -1.87085,-0.98798 -3.06904,-0.98798 -2.64862,0 -5.61256,1.68167 -5.61256,5.6546 z m 8.6816,-4.07804 v 7.52545 c -0.67267,0.69369 -1.6186,1.05104 -2.56454,1.05104 -1.91289,0 -3.88885,-1.45044 -3.93089,-4.35131 -0.042,-3.84681 2.24923,-5.06602 4.1411,-5.06602 1.05104,0 1.97596,0.35735 2.35433,0.84083 z"
             data-paper-data="{&quot;glyphName&quot;:&quot;d&quot;,&quot;glyphIndex&quot;:3,&quot;word&quot;:1}"
             id="path272"
             style="fill:#ffffff" /><path
             d="m 208.68028,349.28234 c -0.23123,-2.94291 1.38737,-4.70866 3.00598,-4.72968 1.63962,-0.021 3.30027,1.72371 3.04802,4.72968 z m -2.29127,0.21021 c 0,3.59456 2.56454,5.33929 5.27623,5.33929 1.72371,0 3.48946,-0.71471 4.66662,-2.14412 l -0.42042,-0.29429 c -0.63062,0.92492 -2.10208,1.70269 -3.25823,1.70269 -1.99698,0 -3.86783,-1.74473 -3.97293,-4.16212 h 8.02995 c 0.0631,-0.44144 0.1051,-1.42942 -0.021,-2.018 -0.56756,-2.79577 -2.90087,-3.88885 -5.045,-3.86783 -2.60658,0.021 -5.2552,1.93392 -5.2552,5.44439 z"
             data-paper-data="{&quot;glyphName&quot;:&quot;e&quot;,&quot;glyphIndex&quot;:4,&quot;lastGlyphOfWord&quot;:true,&quot;word&quot;:1}"
             id="path274"
             style="fill:#ffffff" /><path
             d="m 238.27058,354.66367 h 2.14412 l 4.37233,-12.88576 4.81377,12.88576 h 2.08106 l 5.57052,-14.77763 h -0.86185 l -5.045,13.53741 -5.12908,-13.53741 h -1.59758 l -4.56152,13.13801 -4.93989,-13.13801 h -2.39637 z"
             data-paper-data="{&quot;glyphName&quot;:&quot;W&quot;,&quot;glyphIndex&quot;:5,&quot;firstGlyphOfWord&quot;:true,&quot;word&quot;:2}"
             id="path276"
             style="fill:#ffffff" /><path
             d="m 264.02809,339.80195 c 0.67267,0 1.21921,0.54654 1.21921,1.24023 0,0.67267 -0.54654,1.21921 -1.21921,1.21921 -0.69369,0 -1.24023,-0.54654 -1.24023,-1.21921 0,-0.69369 0.54654,-1.24023 1.24023,-1.24023 z m 0.92492,4.35131 h -1.87085 v 10.51041 h 1.87085 z"
             data-paper-data="{&quot;glyphName&quot;:&quot;i&quot;,&quot;glyphIndex&quot;:6,&quot;word&quot;:2}"
             id="path278"
             style="fill:#ffffff" /><path
             d="m 278.20313,353.8859 -0.54654,-0.52552 c -0.54654,0.6096 -1.28227,0.94594 -2.08106,0.94594 -1.70269,0 -2.18617,-1.32431 -2.18617,-4.18314 v -5.12908 h 2.45944 v -0.84083 h -2.45944 v -3.67864 h -1.87085 v 9.64856 c 0,3.69966 1.95494,4.72968 3.88885,4.72968 1.03002,0 2.03902,-0.21021 2.79577,-0.96696 z"
             data-paper-data="{&quot;glyphName&quot;:&quot;t&quot;,&quot;glyphIndex&quot;:7,&quot;word&quot;:2}"
             id="path280"
             style="fill:#ffffff" /><path
             d="m 284.4323,354.66367 h 2.06004 v -8.26118 c 0.54654,-0.88287 1.82881,-1.55554 3.09006,-1.55554 1.5135,0 2.98496,1.009 2.92189,3.86783 v 5.94889 h 2.14412 v -5.84379 c 0.21021,-3.44741 -1.97596,-4.7507 -4.26723,-4.7507 -1.47146,0 -2.98496,0.56756 -3.88885,1.42942 v -5.42337 h -2.06004 z"
             data-paper-data="{&quot;glyphName&quot;:&quot;h&quot;,&quot;glyphIndex&quot;:8,&quot;lastGlyphOfWord&quot;:true,&quot;word&quot;:2}"
             id="path282"
             style="fill:#ffffff" /><path
             d="m 309.8815,340.5587 h 6.68462 v 14.10497 h 2.08106 V 340.5587 h 6.68462 v -0.67267 h -15.4503 z"
             data-paper-data="{&quot;glyphName&quot;:&quot;T&quot;,&quot;glyphIndex&quot;:9,&quot;firstGlyphOfWord&quot;:true,&quot;word&quot;:3}"
             id="path284"
             style="fill:#ffffff" /><path
             d="m 336.77413,344.15326 c -0.29429,-0.042 -0.56756,-0.0631 -0.84083,-0.0631 -1.93392,0 -3.11108,0.96696 -3.72068,2.14412 l -0.021,-0.92492 -0.58858,-1.13512 -1.45044,0.021 v 10.48939 h 2.06004 v -7.79872 c 0.5045,-1.009 1.99698,-1.45044 3.11108,-1.45044 0.48348,0 0.9039,0.0841 1.13512,0.23123 0.1051,-0.52552 0.23123,-1.009 0.31531,-1.5135 z"
             data-paper-data="{&quot;glyphName&quot;:&quot;r&quot;,&quot;glyphIndex&quot;:10,&quot;word&quot;:3}"
             id="path286"
             style="fill:#ffffff" /><path
             d="m 351.20142,353.33936 0.46246,1.32431 h 1.55554 v -10.48939 h -2.06004 v 8.51343 c -0.73573,0.84083 -1.82881,1.32431 -2.87985,1.32431 -1.59758,0 -3.09006,-1.15614 -3.027,-3.90987 v -5.92787 h -2.14412 v 5.84379 c -0.21021,3.23721 2.14412,4.72968 4.49845,4.72968 1.34533,0 2.71169,-0.48348 3.59456,-1.40839 z"
             data-paper-data="{&quot;glyphName&quot;:&quot;u&quot;,&quot;glyphIndex&quot;:11,&quot;word&quot;:3}"
             id="path288"
             style="fill:#ffffff" /><path
             d="m 359.53267,353.36038 c 1.009,0.98798 2.75373,1.53452 4.41437,1.53452 0.92492,0 1.84983,-0.16817 2.60658,-0.52552 1.89187,-0.88287 2.54352,-3.97293 -0.14715,-5.2552 -1.03002,-0.46246 -2.08106,-0.56756 -3.51048,-1.15614 -2.66964,-1.07206 -1.47146,-3.34231 0.86185,-3.34231 1.21921,0 2.5225,0.25225 3.48946,1.03002 l 0.37837,-0.42042 c -0.79879,-0.79879 -2.39637,-1.21921 -3.88885,-1.21921 -0.79879,0 -1.57656,0.12612 -2.18617,0.37837 -2.08106,0.88287 -2.60658,3.84681 -0.18919,5.19214 1.40839,0.79879 3.5315,0.92492 4.7507,2.018 0.65165,0.58858 0.31531,1.53452 0.042,1.78677 -0.5045,0.5045 -1.34533,0.69369 -2.22821,0.69369 -1.53452,0 -3.25823,-0.56756 -4.05702,-1.21921 z"
             data-paper-data="{&quot;glyphName&quot;:&quot;s&quot;,&quot;glyphIndex&quot;:12,&quot;word&quot;:3}"
             id="path290"
             style="fill:#ffffff" /><path
             d="m 381.04398,353.8859 -0.54654,-0.52552 c -0.54654,0.6096 -1.28227,0.94594 -2.08106,0.94594 -1.70269,0 -2.18617,-1.32431 -2.18617,-4.18314 v -5.12908 h 2.45944 v -0.84083 h -2.45944 v -3.67864 h -1.87085 v 9.64856 c 0,3.69966 1.95494,4.72968 3.88885,4.72968 1.03002,0 2.03902,-0.21021 2.79577,-0.96696 z"
             data-paper-data="{&quot;glyphName&quot;:&quot;t&quot;,&quot;glyphIndex&quot;:13,&quot;lastGlyphOfWord&quot;:true,&quot;word&quot;:3}"
             id="path292"
             style="fill:#ffffff" /></g><g
           data-paper-data="{&quot;isPrimaryText&quot;:true}"
           fill-rule="nonzero"
           id="g306"
           transform="matrix(1.189411,0,0,1.189411,-120.84357,-37.624016)"
           style="fill:#ffffff"><path
             d="m 170.75135,321.28668 h 2.93237 l -17.5942,-24.53613 17.5942,-17.95327 h -3.29143 l -26.57084,26.98975 v -26.98975 h -2.39377 v 42.4894 h 2.39377 v -12.02869 l 10.59243,-10.77196 z"
             data-paper-data="{&quot;glyphName&quot;:&quot;K&quot;,&quot;glyphIndex&quot;:0,&quot;firstGlyphOfWord&quot;:true,&quot;word&quot;:1}"
             id="path296"
             style="fill:#ffffff" /><path
             d="m 199.14744,278.79728 v 42.4894 h 2.39377 V 306.0264 h 16.0981 l 10.35305,15.26028 h 2.87252 L 220.3323,305.78702 c 6.34349,-1.13704 11.13103,-6.64271 11.13103,-13.34526 0,-7.54037 -6.10411,-13.64448 -13.64448,-13.64448 z m 18.6714,24.83535 h -16.27763 v -22.44159 h 16.27763 c 6.2238,0 11.25072,5.02692 11.25072,11.25072 0,6.2238 -5.02692,11.19087 -11.25072,11.19087 z"
             data-paper-data="{&quot;glyphName&quot;:&quot;R&quot;,&quot;glyphIndex&quot;:1,&quot;word&quot;:1}"
             id="path298"
             style="fill:#ffffff" /><path
             d="m 274.70078,278.79728 h -3.1119 l -18.43202,42.4894 h 2.63315 l 5.62536,-13.04604 h 23.39909 l 5.6852,13.04604 h 2.63315 z m -1.55595,2.51346 10.65227,24.53613 h -21.30455 z"
             data-paper-data="{&quot;glyphName&quot;:&quot;A&quot;,&quot;glyphIndex&quot;:2,&quot;word&quot;:1}"
             id="path300"
             style="fill:#ffffff" /><path
             d="m 334.81431,278.79728 h -3.1119 l -18.43202,42.4894 h 2.63315 l 5.62536,-13.04604 h 23.39909 l 5.6852,13.04604 h 2.63315 z m -1.55595,2.51346 10.65227,24.53613 h -21.30455 z"
             data-paper-data="{&quot;glyphName&quot;:&quot;A&quot;,&quot;glyphIndex&quot;:3,&quot;word&quot;:1}"
             id="path302"
             style="fill:#ffffff" /><path
             d="m 378.65021,321.28668 h 29.92212 v -2.39377 h -27.52835 v -40.09563 h -2.39377 z"
             data-paper-data="{&quot;glyphName&quot;:&quot;L&quot;,&quot;glyphIndex&quot;:4,&quot;lastGlyphOfWord&quot;:true,&quot;word&quot;:1}"
             id="path304"
             style="fill:#ffffff" /></g></g></g></g></svg>
